<svg width="186" height="56" xmlns="http://www.w3.org/2000/svg" xmlns:xlink="http://www.w3.org/1999/xlink"><defs><path id="a" d="M0 0h186v56H0z"/></defs><g fill="none" fill-rule="evenodd"><mask id="b" fill="#fff"><use xlink:href="#a"/></mask><g mask="url(#b)" fill="#0018A8"><path d="M73.625 30.455v5.527c0 1.309.345 2.255 1.8 2.255a2.232 2.232 0 002.073-1.383c.146-.398.162-.817.162-1.307v-5.092h2.145v9.347h-1.908l-.055-1.092c-.528.674-1.417 1.291-2.981 1.291-2.237 0-3.383-1.2-3.383-3.491v-6.055h2.147zm18.145-.218c2.509 0 3.762 1.272 3.855 3.038H93.57c-.054-.493-.437-1.419-1.927-1.419-1.055 0-1.51.452-1.51 1.056 0 .688.455.963 1.273 1.126l1.964.4c1.583.326 2.363 1.291 2.363 2.69 0 1.454-1 2.874-3.82 2.874-2.763-.02-3.833-1.309-3.926-3.04h2.11c.036.549.236 1.403 1.782 1.42 1.31 0 1.783-.491 1.783-1.165 0-.597-.363-.89-1.164-1.068l-2.019-.456c-1.308-.292-2.345-1-2.345-2.638 0-1.835 1.508-2.818 3.636-2.818zm53.182 0c2.563 0 3.763 1.019 3.763 3.31v6.256h-1.855l-.054-1.093c-.528.673-1.49 1.29-3 1.29-1.854 0-3.181-1.073-3.181-2.944 0-1.781 1.311-3 3.873-3h2.125V33.4c0-1.164-.598-1.508-1.726-1.508-1.31 0-1.636.583-1.709 1.18h-2.163c.308-1.653 1.417-2.837 3.927-2.837zm-25.163 0c3.217 0 4.216 2.182 4.216 4.527v1.038h-6.49c.127 1.709.892 2.49 2.274 2.49 1.598 0 1.926-.746 2.017-1.273h2.13c-.275 1.51-1.475 2.982-4.147 2.982-3.02 0-4.437-2.11-4.437-4.82 0-2.852 1.454-4.945 4.437-4.945zm-18.965.02c2.726 0 3.908 1.472 4.074 3.434h-2.147c-.091-.636-.308-1.726-1.927-1.726-1.4 0-2.126 1.018-2.126 3.2 0 1.854.563 3.127 2.126 3.127 1.6 0 1.856-1.02 1.91-1.745h2.145c-.218 2.128-1.563 3.454-4.035 3.454-3.438 0-4.346-2.27-4.346-4.835 0-2.53.927-4.91 4.326-4.91zm-34.8-.02c3.217 0 4.217 2.182 4.217 4.527v1.038h-6.488c.124 1.709.89 2.49 2.271 2.49 1.6 0 1.927-.746 2.02-1.273h2.125c-.272 1.51-1.473 2.982-4.145 2.982-3.017 0-4.438-2.11-4.438-4.82 0-2.852 1.456-4.945 4.438-4.945zm18.747-2.416v2.634h2.307v1.637H84.77V36.6c0 1.291.29 1.62 1.526 1.62.418 0 .763-.076.854-.095v1.638c-.253.057-.746.109-1.365.109-2.197 0-3.16-.473-3.16-3.109v-4.672H80.86v-1.637h1.765v-2.634h2.145zm77.835-1.474v13.455h-2.146V26.347h2.146zm-27.837 0c3.149 0 4.346 1.42 4.346 3.438 0 1.47-.78 2.544-1.817 2.888 1.236.201 2.454 1.218 2.454 3.129 0 2.472-1.275 4-4.581 4h-5.71V26.347h5.308zm-26.745 0V31.4c.564-.6 1.435-1.165 2.947-1.165 2.162 0 3.251 1.312 3.251 3.276v6.29h-2.143V34.22c0-1.527-.636-2.128-1.727-2.128-.982 0-1.672.527-1.982 1.038-.273.436-.327.837-.327 1.51v5.163h-2.147V26.347h2.128zm60.8 4.091l-3.672 4.073 4.181 5.291h-2.582l-4.072-5.236 3.672-4.128h2.472zm-13.327-.201c2.164 0 3.254 1.31 3.254 3.274v6.29h-2.147v-5.583c0-1.525-.633-2.126-1.726-2.126-.982 0-1.671.526-1.98 1.036-.273.437-.329.892-.329 1.564v5.11h-2.145v-9.347h2.037l.09.946c.565-.6 1.438-1.164 2.946-1.164zm-101.29-3.89c4.09 0 6.472 1.874 6.472 6.654 0 4.035-1.8 6.8-6.51 6.8h-4.836V26.349h4.874zm92.416 9.31h-2.125c-1.217 0-1.709.473-1.709 1.345 0 .745.326 1.29 1.544 1.29s1.964-.599 2.202-1.309c.07-.237.088-.4.088-.71v-.617zm-11.834-1.928h-3.036v4.162h3.036c1.728 0 2.509-.579 2.509-2.09 0-1.507-.781-2.072-2.509-2.072zm-81.22-5.456h-1.946v9.601h1.928c3.492 0 4.636-1.4 4.636-4.91 0-3.49-1.345-4.69-4.618-4.69zm12.474 3.673c-1.31 0-2.057.638-2.255 2.273h4.344c-.053-1.453-.635-2.273-2.09-2.273zm53.765 0c-1.312 0-2.058.638-2.256 2.273h4.346c-.057-1.453-.637-2.273-2.09-2.273zm14.542-3.69h-2.597v3.563h2.653c1.728 0 2.273-.545 2.273-1.781 0-1.164-.528-1.782-2.33-1.782zM21.28 34.24l9.12-12.48h4.32l-9.121 12.48h-4.32zM16 40h24V16H16v24zm3.36-3.36h17.28V19.358H19.36V36.64z"/></g></g></svg>
