<?xml version="1.0" encoding="UTF-8"?>
<svg id="Logo" xmlns="http://www.w3.org/2000/svg" baseProfile="tiny" version="1.2" viewBox="0 0 942.1512 142.9512">
  <g id="Right">
    <path d="M29.3904,60.6128c24.6464,0,39.0201,11.2826,39.0201,40.1204,0,24.3429-10.8468,40.9932-39.2528,40.9932H0V60.6128h29.3904ZM25.5479,72.2318h-11.7313v57.8714h11.6191c21.0531,0,27.9448-8.4413,27.9448-29.5947,0-21.0445-8.1088-28.2768-27.8326-28.2768ZM89.6252,117.0593c.7725,10.5265,5.2671,16.0012,14.0283,16.0012,9.6502,0,11.9473-4.8187,12.5045-8.1001h12.5037c-1.6573,9.3133-9.1057,17.9792-25.0082,17.9792-18.4106,0-26.7276-12.9444-26.7276-29.6108,0-17.5308,8.7612-30.2421,26.7276-30.2421,19.4128,0,25.4362,13.4761,25.4362,27.8413v6.1315h-39.4644ZM116.6021,107.7452c-.1166-9.3133-4.0547-14.7965-12.8321-14.7965-7.8925,0-13.26,4.378-13.8164,14.7965h26.6485ZM177.3978,134.0576c-3.1861,4.1628-8.6489,8.882-18.083,8.882-13.488,0-20.3962-7.3532-20.3962-21.4852v-37.1546h12.9435v34.296c0,8.0091,2.0861,14.1405,10.8464,14.1405,7.0248,0,11.1748-5.0348,12.4875-8.4413.889-2.5174.9843-5.0348.9843-8.1086v-31.8866h12.9486v57.4266h-11.2905l-.4407-7.6688ZM235.6803,141.5103c-1.5246.3318-4.4946.6559-8.2209.6559-13.26,0-18.8512-2.8492-18.8512-19.0758v-28.7209h-10.8464v-9.754h10.8464v-16.6582h12.7155v16.6582h13.9117v9.754h-13.9117v27.8489c0,8.0006,1.7526,9.9701,9.2053,9.9701,2.5259,0,4.595-.4407,5.1514-.5487v9.8706ZM275.7675,101.39c-.3284-3.614-3.0534-8.882-11.8307-8.882-6.3518,0-9.2061,2.8501-9.2061,6.9125,0,4.0547,2.2979,5.9154,7.7768,7.012l11.8478,2.4094c9.5337,1.961,14.2444,7.8934,14.2444,16.4427,0,8.9892-6.0404,17.6551-23.0225,17.6551-16.5414-.1166-23.1383-7.7938-23.6785-18.3118h12.2927c.2118,3.2899,1.8521,8.7739,11.1739,8.8735,7.8934,0,11.0753-3.1742,11.0753-7.6688,0-3.7306-2.3141-5.5912-7.3532-6.6879l-12.1753-2.742c-7.8764-1.7526-14.1287-6.0319-14.1287-16.1016,0-11.299,8.7654-17.2144,21.5975-17.2144,15.0134,0,22.5776,7.3276,23.2344,18.3033h-11.8478ZM333.0656,103.7908c-.5402-3.8301-2.1814-10.7341-11.943-10.7341-8.437,0-13.0482,6.5798-13.0482,20.1725,0,11.3985,3.626,19.7233,13.0482,19.7233,9.6451,0,11.4028-6.3475,11.7312-10.8506h12.7155c-1.3127,12.9282-9.4341,20.8378-24.3353,20.8378-20.7246,0-26.2036-13.9253-26.2036-29.7104,0-15.7944,5.5955-30.1426,26.0921-30.1426,16.3423,0,23.4624,8.7654,24.5463,20.7042h-12.6032ZM366.6887,141.7264h-12.9316V60.6128h12.8151v30.5825c3.415-3.7221,8.6821-8.1086,17.7716-8.1086,13.0439,0,19.6237,7.6688,19.6237,20.164v38.4758h-12.9435v-34.9613c0-9.4384-3.8259-12.6117-10.4227-12.6117-5.9077,0-10.0739,2.9573-11.9269,6.1476-1.6573,2.6255-1.9857,5.467-1.9857,9.5294v31.896ZM425.1873,117.0593c.7682,10.5265,5.2671,16.0012,14.0453,16.0012,9.629,0,11.926-4.8187,12.4705-8.1001h12.5207c-1.6581,9.3133-9.11,17.9792-24.9912,17.9792-18.4276,0-26.7651-12.9444-26.7651-29.6108,0-17.5308,8.7816-30.2421,26.7651-30.2421,19.3957,0,25.4149,13.4761,25.4149,27.8413v6.1315h-39.4602ZM452.1429,107.7452c-.0953-9.3133-4.0335-14.7965-12.8151-14.7965-7.8883,0-13.2558,4.378-13.8122,14.7965h26.6272ZM504.5058,141.7264V60.6128h31.2392c18.9763,0,26.6366,8.5492,26.6366,20.717,0,8.8769-4.7107,15.341-10.9672,17.4262,7.4527,1.2047,14.805,7.3446,14.805,18.8597,0,14.8969-8.0091,24.1107-27.9655,24.1107h-33.7481ZM534.4162,72.1197h-16.0931v21.4849h16.4419c10.4015,0,13.7994-3.2899,13.7994-10.7426,0-7.012-3.2814-10.7423-14.1482-10.7423ZM518.3231,105.1121v25.1069h18.7347c10.4185,0,15.2287-3.5145,15.2287-12.6032,0-9.0972-4.8102-12.5037-15.2287-12.5037h-18.7347ZM576.0483,100.1853c1.853-10.0867,8.6489-17.0987,23.6623-17.0987,15.569,0,22.6899,6.1315,22.6899,20.164v38.4758h-10.9587l-.4237-7.901c-3.1904,4.179-9.1066,9.1142-18.1953,9.1142-11.5236,0-19.1924-6.5968-19.1924-18.0957,0-10.9672,7.8764-17.53,23.3382-17.53h12.9529v-5.0518c0-7.1115-3.7306-9.6375-10.535-9.6375-7.7853,0-10.0867,3.8386-10.5189,7.5607h-12.8193ZM609.9215,120.6895v-4.5031h-12.9529c-7.3361,0-10.7256,2.9581-10.7256,8.3247,0,4.6035,2.2928,8.4413,9.737,8.4413,7.3608,0,11.9635-3.3894,13.3757-7.776.4492-1.4293.5658-2.6255.5658-4.4869ZM647.0345,90.8635c3.4141-3.7306,8.8811-7.7768,17.9869-7.7768,13.0439,0,19.6246,8.1086,19.6246,20.164v38.4758h-12.9359v-35.0693c0-9.4299-3.8387-12.5037-10.4193-12.5037-5.923,0-9.9778,2.9573-11.9388,6.1476-1.6445,2.6255-1.9772,5.7001-1.9772,9.7455v31.6799h-12.9444v-57.327h12.0638l.5402,6.4641ZM709.604,141.7264h-12.9529V60.6128h12.9529v81.1136ZM710.0277,109.6152l22.4738-25.3153h14.9046l-22.4653,24.9827,25.2073,32.4439h-15.5698l-24.5505-32.1112Z" fill="#1e2a78" stroke-width="0"/>
    <path id="_2024" data-name="2024" d="M820.6636,121.4881h101.2325V20.2445h-101.2325v101.2436ZM800.4189,0h141.7323v141.7324h-141.7323V0ZM830.9989,107.7151l55.2838-73.6974h25.3103l-55.284,73.6974h-25.3101Z" fill="#1e2a78" stroke-width="0"/>
  </g>
</svg>