<svg width="48px" height="48px" viewBox="0 0 48 48" version="1.1" xmlns="http://www.w3.org/2000/svg" xmlns:xlink="http://www.w3.org/1999/xlink">
    <title>QuickTip / z / Icon / Lightbulb</title>
    <g id="QuickTip-/-z-/-Icon-/-Lightbulb" stroke="none" stroke-width="1" fill="none" fill-rule="evenodd">
        <g id="Group" transform="translate(5.5, 2.5016)">
            <path d="M22.7826121,32.8346453 L27.4306121,31.5896453 L26.5666121,28.3636453 L28.7316121,21.8026453 C29.4076121,19.8866453 29.5326121,17.7536453 28.9666121,15.6436453 C27.4766121,10.0826453 21.7616121,6.78164529 16.2006121,8.27164529 C10.6396121,9.76164529 7.34161207,15.4776453 8.83161207,21.0386453 C9.39661207,23.1496453 10.5716121,24.9346453 12.1146121,26.2556453 L17.2696121,30.8546453 L18.1346121,34.0796453 L22.7826121,32.8346453 Z" id="Stroke-1" stroke="#062B44" fill="#FFFFFF" stroke-linecap="round"></path>
            <path d="M28.2334034,40.2940419 C28.3048157,40.5607907 28.1464642,40.8349243 27.8797155,40.9063366 L25.14188,41.6392925 L22.40388,42.3732925 C22.1371556,42.4447957 21.862968,42.2865377 21.7914648,42.0198133 C21.7199616,41.7530889 21.8782197,41.4789012 22.1449441,41.407398 L24.8831087,40.6733539 L27.6211087,39.9403539 C27.8878574,39.8689417 28.1619911,40.0272932 28.2334034,40.2940419 Z M30.0324762,36.9983404 C30.1039446,37.2650741 29.9456507,37.5392411 29.678917,37.6107094 L24.4388939,39.0147156 L19.1978939,40.4187156 C18.9311568,40.4901712 18.6569974,40.3318643 18.5855417,40.0651272 C18.5140861,39.79839 18.6723931,39.5242306 18.9391302,39.452775 L24.1801072,38.0487811 L29.4201072,36.6447811 C29.6868409,36.5733128 29.9610079,36.7316067 30.0324762,36.9983404 Z M29.3290762,34.3733404 C29.4005446,34.6400741 29.2422507,34.9142411 28.975517,34.9857094 L23.7354939,36.3897156 L18.4944939,37.7937156 C18.2277568,37.8651712 17.9535974,37.7068643 17.8821417,37.4401272 C17.8106861,37.17339 17.9689931,36.8992306 18.2357302,36.827775 L23.4767072,35.4237811 L28.7167072,34.0197811 C28.9834409,33.9483128 29.2576079,34.1066067 29.3290762,34.3733404 Z M29.4495391,15.5141018 C30.02798,17.6704807 29.9309148,19.9062161 29.2064292,21.9593255 L27.0877016,28.3779468 L27.9135901,31.4602922 L28.0429392,31.9432553 L27.5599801,32.0726193 L18.2639801,34.5626193 L17.7811682,34.6919439 L17.6516815,34.2091755 L16.8237016,31.1259468 L11.7894394,26.6354647 C10.2257455,25.2967481 9.06897102,23.5455736 8.45697851,21.545867 L8.34864774,21.1680495 C6.78705606,15.339854 10.2439355,9.35002528 16.0712079,7.78868096 C21.8986588,6.22728878 27.8880326,9.68622427 29.4495391,15.5141018 Z M16.3300163,8.75460963 C11.0362895,10.1729971 7.89589983,15.6144354 9.31461162,20.9093726 C9.83931239,22.8698032 10.9305042,24.583694 12.4474718,25.8825442 L17.6024718,30.4815442 L17.7138687,30.5809263 L17.7525426,30.7251151 L18.4867016,33.4669468 L26.8177016,31.2359468 L26.083634,28.4929984 L26.0450044,28.3487631 L26.0917949,28.206965 L28.2600987,21.6362867 C28.9212501,19.7623726 29.0093617,17.7328668 28.4836477,15.7730495 C27.0650271,10.4784527 21.6239518,7.33616619 16.3300163,8.75460963 Z M7.90648348,25.5469419 C8.05786661,25.7778916 7.99336517,26.0878336 7.76241548,26.2392167 L3.73941548,28.8762167 C3.50846579,29.0275998 3.1985238,28.9630984 3.04714067,28.7321487 C2.89575754,28.501199 2.96025898,28.191257 3.19120867,28.0398739 L7.21420867,25.4028739 C7.44515836,25.2514908 7.75510035,25.3159922 7.90648348,25.5469419 Z M32.7258883,18.5670455 L37.5278883,18.8390455 C37.8035887,18.854662 38.0144284,19.0908211 37.9988119,19.3665215 C37.9831954,19.6422219 37.7470363,19.8530616 37.4713359,19.8374451 L32.6693359,19.5654451 C32.3936354,19.5498286 32.1827957,19.3136695 32.1984123,19.0379691 C32.2140288,18.7622686 32.4501878,18.551429 32.7258883,18.5670455 Z M0.525788958,16.8915102 L5.27178896,17.1365102 C5.54756412,17.1507464 5.75958336,17.385847 5.74534718,17.6616222 C5.731111,17.9373973 5.49601035,18.1494166 5.22023519,18.1351804 L0.474235186,17.8901804 C0.19846002,17.8759442 -0.0135592191,17.6408436 0.000676962042,17.3650684 C0.0149131432,17.0892932 0.250013792,16.877274 0.525788958,16.8915102 Z M34.9541485,7.99923582 C35.1043752,8.23093941 35.0383251,8.54055507 34.8066215,8.69078176 L30.8196215,11.2757818 C30.587918,11.4260084 30.2783023,11.3599584 30.1280756,11.1282548 C29.9778489,10.8965512 30.043899,10.5869355 30.2756026,10.4367088 L34.2626026,7.85170882 C34.4943062,7.70148214 34.8039219,7.76753223 34.9541485,7.99923582 Z M4.88122143,6.26036873 L8.62222143,9.31136873 C8.83621882,9.48589588 8.86821578,9.80085725 8.69368864,10.0148546 C8.51916149,10.228852 8.20420011,10.260849 7.99020272,10.0863219 L4.24920272,7.03532186 C4.03520532,6.86079471 4.00320836,6.54583333 4.17773551,6.33183594 C4.35226266,6.11783854 4.66722403,6.08584158 4.88122143,6.26036873 Z M25.8222266,0.609173358 C26.0794653,0.709586724 26.2065974,0.999521039 26.106184,1.25675977 L24.326184,5.81675977 C24.2257706,6.07399851 23.9358363,6.20113059 23.6785976,6.10071722 C23.4213589,6.00030386 23.2942268,5.71036954 23.3946401,5.45313081 L25.1746401,0.893130809 C25.2750535,0.635892073 25.5649878,0.508759992 25.8222266,0.609173358 Z M14.1763371,0.000544187552 C14.3782948,0.0197267549 14.5564979,0.161591251 14.6120794,0.36905218 L15.9020794,5.18405218 C15.9735412,5.45078766 15.8152407,5.72495076 15.5485052,5.7964126 C15.2817697,5.86787444 15.0076066,5.70957388 14.9361448,5.4428384 L14.851,5.12332121 L13.6461427,0.62783058 C13.5746851,0.361093943 13.7329901,0.0869334074 13.9997268,0.0154758855 L14.0886257,1.20702059e-14 L14.1763371,0.000544187552 Z" id="Combined-Shape" fill="#062B44" fill-rule="nonzero"></path>
        </g>
    </g>
</svg>
