<?xml version="1.0" encoding="UTF-8"?>
<svg width="60px" height="20px" viewBox="0 0 60 20" version="1.1" xmlns="http://www.w3.org/2000/svg" xmlns:xlink="http://www.w3.org/1999/xlink">
    <title>F446830B-C47F-43E0-A3F4-48AD12A251C5</title>
    <g id="Standard-🟡-🔵-🟢🟠" stroke="none" stroke-width="1" fill="none" fill-rule="evenodd">
        <g id="DB-/-Components-/-2FA-Module-/-Standard" transform="translate(-1765, -567)" fill="#FFFFFF" fill-rule="nonzero">
            <g id="States" transform="translate(1443, 440)">
                <g id="Display" transform="translate(313, 116)">
                    <path d="M35,24 L66,24 C66.5522847,24 67,24.4477153 67,25 C67,25.5522847 66.5522847,26 66,26 L35,26 C34.4477153,26 34,25.5522847 34,25 C34,24.4477153 34.4477153,24 35,24 Z M35,18 L68,18 C68.5522847,18 69,18.4477153 69,19 C69,19.5522847 68.5522847,20 68,20 L35,20 C34.4477153,20 34,19.5522847 34,19 C34,18.4477153 34.4477153,18 35,18 Z M35,12 L57,12 C57.5522847,12 58,12.4477153 58,13 C58,13.5522847 57.5522847,14 57,14 L35,14 C34.4477153,14 34,13.5522847 34,13 C34,12.4477153 34.4477153,12 35,12 Z M9,12 L9,25 C9,25.55 9.45,26 10,26 L13,26 L13,31 L19,26 L28,26 C28.55,26 29,25.55 29,25 L29,12 C29,11.45 28.55,11 28,11 L10,11 C9.45,11 9,11.45 9,12 Z" id="Illu"></path>
                </g>
            </g>
        </g>
    </g>
</svg>