<?xml version="1.0" encoding="UTF-8"?>
<svg width="60px" height="8px" viewBox="0 0 60 8" version="1.1" xmlns="http://www.w3.org/2000/svg" xmlns:xlink="http://www.w3.org/1999/xlink">
    <title>Group</title>
    <g id="Standard-🟡-🔵-🟢🟠" stroke="none" stroke-width="1" fill="none" fill-rule="evenodd" stroke-linecap="round">
        <g id="DB-/-Components-/-2FA-Module-/-Standard" transform="translate(-1697, -173)" stroke="#FFFFFF">
            <g id="Group" transform="translate(1698, 174)">
                <path d="M3.018,0 L3.018,6.034 M0,3.017 L6.036,3.017 M0.885,0.875 L5.151,5.149 M0.885,5.149 L5.151,0.875" id="Path-2"></path>
                <path d="M13.361,0 L13.361,6.034 M10.342,3.017 L16.379,3.017 M11.228,0.875 L15.494,5.149 M11.228,5.149 L15.494,0.875" id="Path-3"></path>
                <path d="M23.704,0 L23.704,6.034 M20.685,3.017 L26.722,3.017 M21.571,0.875 L25.847,5.149 M21.571,5.149 L25.847,0.875" id="Path-4"></path>
                <path d="M34.056,0 L34.056,6.034 M31.039,3.017 L37.075,3.017 M31.923,0.875 L36.189,5.149 M31.923,5.149 L36.189,0.875" id="Path-5"></path>
                <path d="M44.399,0 L44.399,6.034 M41.382,3.017 L47.418,3.017 M42.266,0.875 L46.532,5.149 M42.266,5.149 L46.532,0.875" id="Path-6"></path>
                <path d="M54.742,0 L54.742,6.034 M51.724,3.017 L57.761,3.017 M52.609,0.875 L56.875,5.149 M52.609,5.149 L56.875,0.875" id="Path-7"></path>
            </g>
        </g>
    </g>
</svg>