<svg width="48px" height="48px" viewBox="0 0 48 48" version="1.1" xmlns="http://www.w3.org/2000/svg" xmlns:xlink="http://www.w3.org/1999/xlink">
    <title>QuickTip / z / Icon / Pin</title>
    <g id="QuickTip-/-z-/-Icon-/-Pin" stroke="none" stroke-width="1" fill="none" fill-rule="evenodd">
        <g id="Group-2" transform="translate(11.4999, 3.4999)">
            <path d="M18.9471784,19.6741793 L13.1121784,5.31217929 C14.4171784,4.96217929 15.1921784,3.62017929 14.8421784,2.31517929 C14.4931784,1.00917929 13.1511784,0.23417929 11.8451784,0.58417929 L2.31417844,3.13817929 C1.00917844,3.48817929 0.234178444,4.83017929 0.584178444,6.13517929 C0.934178444,7.44117929 2.27617844,8.21617929 3.58117844,7.86617929 L5.73917844,23.2131793 C3.25217844,23.8791793 1.88517844,26.8391793 2.68417844,29.8231793 C2.88417844,30.5691793 3.55017844,31.0381793 4.17217844,30.8721793 L24.1341784,25.5231793 C24.7551784,25.3571793 25.0971784,24.6171793 24.8971784,23.8711793 L24.8971784,23.8711793 C24.0981784,20.8871793 21.4341784,19.0081793 18.9471784,19.6741793 Z" id="Stroke-37" stroke="#062B44" fill="#FFFFFF" stroke-linecap="round"></path>
            <polygon id="Stroke-39" stroke="#062B44" fill="#FFFFFF" stroke-linecap="round" points="18.1546784 38.6271793 17.7766784 41.1681793 16.1796784 39.1561793 12.6516784 28.6001793 15.6536784 27.7951793"></polygon>
            <path d="M15.3251112,2.18565711 C15.686404,3.53276331 15.0524671,4.91267296 13.8741418,5.54491179 L13.7681214,5.59712652 L19.2531214,19.0971265 L19.4139661,19.0742642 C21.9336129,18.7567243 24.4441406,20.6389776 25.3148222,23.5127858 L25.3801236,23.7417034 C25.6469306,24.7368936 25.1728774,25.7630794 24.2635924,26.006141 L16.249,28.153 L18.6418612,38.5146937 L18.6492362,38.7007499 L18.2712362,41.2417499 L18.1016375,42.3818299 L17.3850505,41.4790291 L15.7880505,39.4670291 L15.7054627,39.3146705 L12.326,29.205 L4.30110645,31.355271 C3.39107695,31.5981406 2.46797378,30.9475971 2.20119286,29.9525042 C1.39717977,26.9497819 2.63281978,23.9368677 5.03514399,22.9268162 L5.18512138,22.8671265 L3.15612138,8.44112652 L3.03794672,8.44891412 C1.75715067,8.48919803 0.565896532,7.68421233 0.150915012,6.43071241 L0.101245732,6.26470147 C-0.320262593,4.69307757 0.612847336,3.07680453 2.18476059,2.65521861 L11.7157488,0.101221772 C13.2886227,-0.320298813 14.9049033,0.613187955 15.3251112,2.18565711 Z M15.281,28.413 L13.293,28.945 L16.6266784,38.9151793 L17.4516784,39.9541793 L17.6456784,38.6481793 L15.281,28.413 Z M19.2654559,20.1122594 L19.0767855,20.1571429 L5.872,23.695 C3.67019608,24.2848551 2.43475861,26.9585631 3.16712357,29.6937034 C3.30026617,30.1903253 3.70891584,30.4783152 4.04276445,30.3892176 L12.0090713,28.2548326 L12.32,28.171 L13.514,27.851 L15.5241764,27.3122412 L16.024359,27.1781149 L24.0050567,25.0401394 C24.3376531,24.9512327 24.5473704,24.4972565 24.4141929,24.0005042 C23.7028748,21.3439671 21.4115292,19.6661701 19.2654559,20.1122594 Z M12.814,5.908 L4.138,8.233 L6.155,22.584 L18.27,19.338 L12.814,5.908 Z M11.9745963,1.06713997 L2.44370063,3.621112 C1.40523277,3.89962829 0.788693682,4.96755767 1.06713596,6.00574963 C1.34564905,7.04500134 2.41342674,7.66169894 3.45165626,7.38324658 L3.46194448,7.38024601 L12.9981606,4.82481861 L12.9826563,4.82924658 C14.0211241,4.5507303 14.6376632,3.48280091 14.3591286,2.44426383 C14.0814774,1.40525974 13.0138233,0.788633507 11.9745963,1.06713997 Z" id="Combined-Shape" fill="#062B44" fill-rule="nonzero"></path>
        </g>
    </g>
</svg>